<?xml version="1.0" encoding="utf-8"?>
<!DOCTYPE svg PUBLIC "-//W3C//DTD SVG 1.1//EN" "http://www.w3.org/Graphics/SVG/1.1/DTD/svg11.dtd">
<svg version="1.1" id="Layer_1" xmlns="http://www.w3.org/2000/svg" xmlns:xlink="http://www.w3.org/1999/xlink" x="0px" y="0px"
	 width="512px" height="512px" viewBox="0 0 512 512" enable-background="new 0 0 512 512" xml:space="preserve">
<g>
	<path fill="#393736" d="M506.037,321.727l-47.85-209.623c-0.573-2.496-2.249-4.607-4.561-5.717L259.912,13.09
		c-2.33-1.11-5.01-1.11-7.325,0L58.869,106.387c-2.321,1.11-3.997,3.221-4.568,5.717L6.456,321.727
		c-0.569,2.492,0.037,5.13,1.644,7.123l134.054,168.043c1.593,2.005,4.011,3.106,6.59,3.106h215.011
		c2.563,0,4.981-1.102,6.576-3.106l134.088-168.077C506.02,326.823,506.6,324.219,506.037,321.727z M117.181,234.429
		c1.126,2.178,3.353,3.436,5.628,3.436c0.986,0,1.964-0.23,2.894-0.697c3.098-1.594,4.336-5.405,2.748-8.516l-6.461-12.586
		L256.249,47.715L390.507,216.06l-6.466,12.603c-1.598,3.101-0.357,6.919,2.747,8.51c0.919,0.474,1.902,0.693,2.878,0.693
		c2.305,0,4.511-1.251,5.635-3.436l3.857-7.604L469.539,315H353.902l17.023-33.116c1.587-3.104,0.364-6.875-2.74-8.465
		c-3.104-1.598-6.922-0.429-8.513,2.693L339.687,315H172.809l-19.985-38.892c-1.602-3.097-5.418-4.287-8.522-2.7
		c-3.101,1.584-4.336,5.352-2.729,8.449L158.593,315H42.964l70.369-88.157L117.181,234.429z M456.204,332L256.249,471.139
		L56.299,332H456.204z M407.586,210.463l12.084-23.567c1.594-3.108,0.371-6.911-2.733-8.51c-3.1-1.594-6.919-0.367-8.513,2.744
		l-9.486,18.339L335.691,120h40.862c3.486,0,6.318-2.514,6.318-5.996c0-3.496-2.832-6.004-6.318-6.004H328.43
		c-0.863,0-1.683,0.003-2.432,0.318L268.355,35.95l152.245,73.28c-1.361,1.16-2.241,2.695-2.241,4.625
		c0,3.482,2.832,6.145,6.318,6.145h14.947l-6.82,13.44c-1.594,3.104-0.364,6.987,2.736,8.589c0.93,0.47,1.906,0.727,2.874,0.727
		c2.309,0,4.511-1.233,5.636-3.414l2.125-4.137l39.553,173.242L407.586,210.463z M66.309,135.242l2.111,4.119
		c1.128,2.188,3.345,3.433,5.637,3.433c0.972,0,1.969-0.219,2.872-0.689c3.124-1.602,4.345-5.56,2.745-8.664L72.862,120h14.946
		c3.484,0,6.319-2.684,6.319-6.167c0-1.93-0.88-3.559-2.239-4.718l152.257-73.292l-57.644,72.476
		c-0.753-0.315-1.584-0.299-2.453-0.299h-48.112c-3.507,0-6.337,2.507-6.337,6.004c0,3.482,2.83,5.996,6.337,5.996h40.875
		l-63.256,79.477l-9.492-18.421c-1.593-3.111-5.407-4.3-8.511-2.713c-3.104,1.594-4.328,5.428-2.749,8.528l12.098,23.601
		l-78.12,97.976L66.309,135.242z M38.935,340.209L244.141,483h-91.335L38.935,340.209z M359.696,483h-91.339l205.215-142.795
		L359.696,483z"/>
	<path fill="#393736" d="M201.572,362.995c-1.598-3.097-5.42-4.313-8.513-2.736c-3.104,1.605-4.331,5.384-2.729,8.506l24.387,47.536
		c1.103,2.192,3.312,3.443,5.617,3.443c0.979,0,1.959-0.233,2.885-0.693c3.108-1.605,4.324-5.402,2.736-8.527L201.572,362.995z"/>
	<path fill="#393736" d="M289.283,419.058c0.909,0.453,1.909,0.686,2.878,0.686c2.298,0,4.511-1.251,5.636-3.429l24.369-47.539
		c1.602-3.115,0.368-6.905-2.736-8.51c-3.104-1.584-6.929-0.368-8.513,2.729l-24.366,47.557
		C284.939,413.649,286.183,417.467,289.283,419.058z"/>
	<path fill="#393736" d="M232.174,120h48.13c3.504,0,6.318-3.013,6.318-6.495c0-3.5-2.814-6.505-6.318-6.505h-48.13
		c-3.486,0-6.318,3.005-6.318,6.505C225.856,116.987,228.688,120,232.174,120z"/>
</g>
</svg>
